# Blender 5.2.0 LTS
# www.blender.org
mtllib corridor_fbt_ems.mtl
o Cube
v 2.000000 2.000000 -10.000000
v 3.000000 -1.000000 -10.000000
v 2.000000 2.000000 10.000000
v 3.000000 -1.000000 10.000000
v -2.000000 2.000000 -10.000000
v -3.000000 -1.000000 -10.000000
v -2.000000 2.000000 10.000000
v -3.000000 -1.000000 10.000000
v 1.000000 -1.000000 -10.000000
v -1.000000 -1.000000 -10.000000
v 1.000000 2.000000 10.000000
v -1.000000 2.000000 10.000000
v -1.000000 -1.000000 10.000000
v 1.000000 -1.000000 10.000000
v -1.000000 2.000000 -10.000000
v 1.000000 2.000000 -10.000000
v 3.000000 1.000000 -10.000000
v -3.000000 1.000000 10.000000
v 3.000000 1.000000 10.000000
v -3.000000 1.000000 -10.000000
v -1.000000 1.000000 -10.000000
v 1.000000 1.000000 -10.000000
v 1.000000 1.000000 10.000000
v -1.000000 1.000000 10.000000
vn -0.0000 -1.0000 -0.0000
vn -0.0000 -0.0000 -1.0000
vn 0.7071 -0.7071 -0.0000
vn -0.0000 1.0000 -0.0000
vn -0.7071 -0.7071 -0.0000
vn -0.0000 -0.0000 1.0000
vn -1.0000 -0.0000 -0.0000
vn 1.0000 -0.0000 -0.0000
vt 0.388218 3.435928
vt 0.388218 -0.004675
vt 0.509862 -0.004675
vt 0.509862 3.435928
vt 1.168467 0.683446
vt 1.168467 1.027506
vt 0.996437 0.855476
vt 0.996437 0.683446
vt 0.753149 -0.004675
vt 0.753149 3.435928
vt 0.006777 4.953220
vt 0.006777 -0.009521
vt 0.503051 -0.009521
vt 0.503051 4.953220
vt 0.996437 -0.004675
vt 0.996437 3.435928
vt 0.753149 3.435928
vt 0.753150 -0.004675
vt 1.168467 1.715627
vt 1.168467 2.059687
vt 0.996437 1.887657
vt 0.996437 1.715627
vt 1.168467 1.027506
vt 1.168467 1.371566
vt 0.996437 1.371566
vt 0.996437 1.199536
vt 1.168467 0.339386
vt 0.996437 0.339386
vt 0.999325 -0.009521
vt 0.999325 4.953220
vt 1.168467 -0.004675
vt 0.996437 0.167356
vt 0.129260 0.032421
vt 0.515453 0.032421
vt 0.515453 3.894350
vt 0.129260 3.894350
vt 0.023287 3.435928
vt 0.023287 -0.004675
vt 0.144931 -0.004675
vt 0.144931 3.435928
vt 1.010309 -0.012515
vt 1.010309 0.990546
vt 0.007249 0.990546
vt 0.007249 -0.012515
vt 1.010309 0.990546
vt 1.010309 1.993606
vt 0.007249 1.993606
vt 0.007249 0.990546
vt 1.010309 1.993606
vt 1.010309 2.996666
vt 0.007248 2.996666
vt 0.007249 1.993606
vt 1.005435 -0.012515
vt 1.005434 10.018087
vt 0.002374 10.018087
vt 0.002375 -0.012515
vt 1.003539 -0.012514
vt 1.003538 10.018087
vt 0.000478 10.018087
vt 0.000478 -0.012515
vt 1.010309 2.996666
vt 1.010309 3.999726
vt 0.007249 3.999726
vt 0.007249 2.996666
vt 0.901645 0.032421
vt 0.901645 0.418614
vt 0.515453 0.418613
vt 0.901645 0.804807
vt 0.515453 0.804806
vt 0.515453 0.418614
s 0
g Cube_Top
usemtl Top
f 15/1/1 12/2/1 7/3/1 5/4/1
f 24/5/2 18/6/2 7/7/2 12/8/2
f 18/9/3 20/10/3 5/4/3 7/3/3
f 17/15/5 19/16/5 3/17/5 1/18/5
f 22/19/6 17/20/6 1/21/6 16/22/6
f 20/23/6 21/24/6 15/25/6 5/26/6
f 23/27/2 24/5/2 12/8/2 11/28/2
f 19/31/2 23/27/2 11/28/2 3/32/2
f 1/37/1 3/38/1 11/39/1 16/40/1
f 21/24/6 22/19/6 16/22/6 15/25/6
f 16/40/1 11/39/1 12/2/1 15/1/1
g Cube_Walls
usemtl Walls
f 4/41/2 14/42/2 23/43/2 19/44/2
f 6/45/6 10/46/6 21/47/6 20/48/6
f 9/49/6 2/50/6 17/51/6 22/52/6
f 2/53/7 4/54/7 19/55/7 17/56/7
f 8/57/8 6/58/8 20/59/8 18/60/8
f 13/61/2 8/62/2 18/63/2 24/64/2
g Cube_Ground
usemtl Ground
f 9/11/4 14/12/4 4/13/4 2/14/4
f 6/14/4 8/13/4 13/29/4 10/30/4
g Cube_Emissive
usemtl Emissive
f 13/33/4 14/34/4 9/35/4 10/36/4
f 14/65/2 13/66/2 24/67/2 23/34/2
f 10/66/6 9/68/6 22/69/6 21/70/6
